# Blender v2.75 (sub 0) OBJ File: ''
# www.blender.org
mtllib cubes.mtl
o Cube
v -3.621645 -1.000000 -1.000000
v -3.621645 -1.000000 1.000000
v -5.621645 -1.000000 1.000000
v -5.621644 -1.000000 -1.000000
v -3.621644 1.000000 -0.999999
v -3.621646 1.000000 1.000001
v -5.621645 1.000000 1.000000
v -5.621645 1.000000 -1.000000
vn 0.000000 -1.000000 0.000000
vn 0.000000 1.000000 0.000000
vn 1.000000 0.000000 0.000000
vn -0.000000 0.000000 1.000000
vn -1.000000 -0.000000 -0.000000
vn 0.000000 0.000000 -1.000000
usemtl Material
s off
f 2//1 3//1 4//1
f 8//2 7//2 6//2
f 5//3 6//3 2//3
f 6//4 7//4 3//4
f 7//5 8//5 4//5
f 1//6 4//6 8//6
f 1//1 2//1 4//1
f 5//2 8//2 6//2
f 1//3 5//3 2//3
f 2//4 6//4 3//4
f 3//5 7//5 4//5
f 5//6 1//6 8//6
o Cube.001
v 5.127558 -1.000000 -7.107509
v 5.127558 -1.000000 -5.107509
v 3.127558 -1.000000 -5.107509
v 3.127558 -1.000000 -7.107509
v 5.127558 1.000000 -7.107508
v 5.127557 1.000000 -5.107508
v 3.127557 1.000000 -5.107509
v 3.127558 1.000000 -7.107509
vn 0.000000 -1.000000 0.000000
vn 0.000000 1.000000 0.000000
vn 1.000000 -0.000000 0.000000
vn 0.000000 0.000000 1.000000
vn -1.000000 -0.000000 -0.000000
vn 0.000000 0.000000 -1.000000
usemtl Material.001
s off
f 10//7 11//7 12//7
f 16//8 15//8 14//8
f 13//9 14//9 10//9
f 14//10 15//10 11//10
f 15//11 16//11 12//11
f 9//12 12//12 16//12
f 9//7 10//7 12//7
f 13//8 16//8 14//8
f 9//9 13//9 10//9
f 10//10 14//10 11//10
f 11//11 15//11 12//11
f 13//12 9//12 16//12
o Cube.002
v -3.509813 -1.000000 -6.221915
v -3.509813 -1.000000 -4.221915
v -5.509813 -1.000000 -4.221915
v -5.509813 -1.000000 -6.221916
v -3.509813 1.000000 -6.221915
v -3.509814 1.000000 -4.221915
v -5.509814 1.000000 -4.221916
v -5.509813 1.000000 -6.221915
vn 0.000000 -1.000000 0.000000
vn 0.000000 1.000000 0.000000
vn 1.000000 0.000000 0.000000
vn 0.000000 0.000000 1.000000
vn -1.000000 0.000000 -0.000000
vn 0.000000 0.000000 -1.000000
usemtl Material.002
s off
f 18//13 19//13 20//13
f 24//14 23//14 22//14
f 21//15 22//15 18//15
f 22//16 23//16 19//16
f 23//17 24//17 20//17
f 17//18 20//18 24//18
f 17//13 18//13 20//13
f 21//14 24//14 22//14
f 17//15 21//15 18//15
f 18//16 22//16 19//16
f 19//17 23//17 20//17
f 21//18 17//18 24//18
o Cube.004_Cube.005
v 0.661136 -1.000000 4.111577
v 0.661136 -1.000000 6.111577
v -1.338864 -1.000000 6.111577
v -1.338864 -1.000000 4.111576
v 0.661136 1.000000 4.111577
v 0.661135 1.000000 6.111577
v -1.338865 1.000000 6.111576
v -1.338864 1.000000 4.111577
vn 0.000000 -1.000000 0.000000
vn 0.000000 1.000000 -0.000000
vn 1.000000 0.000000 0.000000
vn -0.000000 0.000000 1.000000
vn -1.000000 -0.000000 -0.000000
vn 0.000000 0.000000 -1.000000
usemtl Material.005
s off
f 26//19 27//19 28//19
f 32//20 31//20 30//20
f 29//21 30//21 26//21
f 30//22 31//22 27//22
f 31//23 32//23 28//23
f 25//24 28//24 32//24
f 25//19 26//19 28//19
f 29//20 32//20 30//20
f 25//21 29//21 26//21
f 26//22 30//22 27//22
f 27//23 31//23 28//23
f 29//24 25//24 32//24
o Cube.005_Cube.006
v -3.834993 -1.000000 4.060738
v -3.834993 -1.000000 6.060738
v -5.834993 -1.000000 6.060738
v -5.834993 -1.000000 4.060737
v -3.834993 1.000000 4.060738
v -3.834994 1.000000 6.060738
v -5.834994 1.000000 6.060737
v -5.834993 1.000000 4.060738
vn 0.000000 -1.000000 0.000000
vn 0.000000 1.000000 0.000000
vn 1.000000 0.000000 0.000000
vn 0.000000 0.000000 1.000000
vn -1.000000 0.000000 -0.000000
vn 0.000000 0.000000 -1.000000
usemtl Material.006
s off
f 34//25 35//25 36//25
f 40//26 39//26 38//26
f 37//27 38//27 34//27
f 38//28 39//28 35//28
f 39//29 40//29 36//29
f 33//30 36//30 40//30
f 33//25 34//25 36//25
f 37//26 40//26 38//26
f 33//27 37//27 34//27
f 34//28 38//28 35//28
f 35//29 39//29 36//29
f 37//30 33//30 40//30
o Cube.006_Cube.007
v 5.127558 -1.000000 -1.000000
v 5.127558 -1.000000 1.000000
v 3.127558 -1.000000 1.000000
v 3.127558 -1.000000 -1.000000
v 5.127558 1.000000 -0.999999
v 5.127557 1.000000 1.000001
v 3.127557 1.000000 1.000000
v 3.127558 1.000000 -1.000000
vn 0.000000 -1.000000 0.000000
vn 0.000000 1.000000 0.000000
vn 1.000000 0.000000 0.000000
vn -0.000000 0.000000 1.000000
vn -1.000000 0.000000 -0.000000
vn 0.000000 0.000000 -1.000000
usemtl Material.007
s off
f 42//31 43//31 44//31
f 48//32 47//32 46//32
f 45//33 46//33 42//33
f 46//34 47//34 43//34
f 43//35 47//35 48//35
f 41//36 44//36 48//36
f 41//31 42//31 44//31
f 45//32 48//32 46//32
f 41//33 45//33 42//33
f 42//34 46//34 43//34
f 44//35 43//35 48//35
f 45//36 41//36 48//36
o Cube.007_Cube.008
v 5.127558 -1.000000 4.092676
v 5.127558 -1.000000 6.092676
v 3.127558 -1.000000 6.092676
v 3.127558 -1.000000 4.092676
v 5.127558 1.000000 4.092677
v 5.127557 1.000000 6.092677
v 3.127557 1.000000 6.092676
v 3.127558 1.000000 4.092676
vn 0.000000 -1.000000 0.000000
vn 0.000000 1.000000 0.000000
vn 1.000000 -0.000000 0.000000
vn 0.000000 0.000000 1.000000
vn -1.000000 -0.000000 -0.000000
vn 0.000000 0.000000 -1.000000
usemtl Material.008
s off
f 50//37 51//37 52//37
f 56//38 55//38 54//38
f 53//39 54//39 50//39
f 54//40 55//40 51//40
f 55//41 56//41 52//41
f 49//42 52//42 56//42
f 49//37 50//37 52//37
f 53//38 56//38 54//38
f 49//39 53//39 50//39
f 50//40 54//40 51//40
f 51//41 55//41 52//41
f 53//42 49//42 56//42
o Cube.008_Cube.009
v 1.000000 -1.000000 -6.996037
v 1.000000 -1.000000 -4.996037
v -1.000000 -1.000000 -4.996037
v -1.000000 -1.000000 -6.996037
v 1.000000 1.000000 -6.996037
v 0.999999 1.000000 -4.996037
v -1.000000 1.000000 -4.996037
v -1.000000 1.000000 -6.996037
vn 0.000000 -1.000000 0.000000
vn 0.000000 1.000000 0.000000
vn 1.000000 0.000000 0.000000
vn -0.000000 0.000000 1.000000
vn -1.000000 -0.000000 -0.000000
vn 0.000000 0.000000 -1.000000
usemtl Material.009
s off
f 58//43 59//43 60//43
f 64//44 63//44 62//44
f 61//45 62//45 58//45
f 62//46 63//46 59//46
f 63//47 64//47 60//47
f 57//48 60//48 64//48
f 57//43 58//43 60//43
f 61//44 64//44 62//44
f 57//45 61//45 58//45
f 58//46 62//46 59//46
f 59//47 63//47 60//47
f 61//48 57//48 64//48
